<svg width="33" height="45" viewBox="0 0 33 45" fill="none" xmlns="http://www.w3.org/2000/svg">
<path d="M16.4744 44.5966C13.4631 44.5966 10.7784 44.0426 8.42046 42.9347C6.0767 41.8267 4.21591 40.2997 2.83807 38.3537C1.46023 36.4077 0.742898 34.1776 0.68608 31.6634H9.63494C9.73438 33.3537 10.4446 34.7244 11.7656 35.7756C13.0866 36.8267 14.6562 37.3523 16.4744 37.3523C17.9233 37.3523 19.2017 37.0327 20.3097 36.3935C21.4318 35.7401 22.3054 34.8381 22.9304 33.6875C23.5696 32.5227 23.8892 31.1875 23.8892 29.6818C23.8892 28.1477 23.5625 26.7983 22.9091 25.6335C22.2699 24.4687 21.3821 23.5597 20.2457 22.9062C19.1094 22.2528 17.8097 21.919 16.3466 21.9048C15.0682 21.9048 13.8253 22.1676 12.6179 22.6932C11.4247 23.2187 10.4943 23.9361 9.82671 24.8452L1.62358 23.375L3.69034 0.363635H30.3665V7.90625H11.2969L10.1676 18.8366H10.4233C11.1903 17.7571 12.348 16.8622 13.8963 16.152C15.4446 15.4418 17.1776 15.0866 19.0952 15.0866C21.723 15.0866 24.0668 15.7045 26.1264 16.9403C28.1861 18.1761 29.8125 19.8736 31.0057 22.0327C32.1989 24.1776 32.7884 26.6491 32.7741 29.4474C32.7884 32.3878 32.1065 35.0014 30.7287 37.2884C29.3651 39.5611 27.4545 41.3509 24.9972 42.6577C22.554 43.9503 19.7131 44.5966 16.4744 44.5966Z" fill="#FFB400"/>
</svg>
