<svg width="34" height="46" viewBox="0 0 34 46" fill="none" xmlns="http://www.w3.org/2000/svg">
<path d="M16.6662 45.5966C13.4844 45.5966 10.6506 45.0497 8.16477 43.956C5.69318 42.848 3.74006 41.3281 2.3054 39.3963C0.884943 37.4503 0.153409 35.206 0.110796 32.6634H9.40057C9.45739 33.7287 9.8054 34.6662 10.4446 35.4759C11.098 36.2713 11.9645 36.8892 13.044 37.3295C14.1236 37.7699 15.3381 37.9901 16.6875 37.9901C18.0938 37.9901 19.3366 37.7415 20.4162 37.2443C21.4957 36.7472 22.3409 36.0582 22.9517 35.1776C23.5625 34.2969 23.8679 33.2812 23.8679 32.1307C23.8679 30.9659 23.5412 29.9361 22.8878 29.0412C22.2486 28.1321 21.3253 27.4219 20.1179 26.9105C18.9247 26.3991 17.5043 26.1435 15.8565 26.1435H11.7869V19.3679H15.8565C17.2486 19.3679 18.4773 19.1264 19.5426 18.6435C20.6222 18.1605 21.4602 17.4929 22.0568 16.6406C22.6534 15.7741 22.9517 14.7656 22.9517 13.6151C22.9517 12.5213 22.6889 11.5625 22.1634 10.7386C21.652 9.90057 20.9276 9.24716 19.9901 8.77841C19.0668 8.30966 17.9872 8.07528 16.7514 8.07528C15.5014 8.07528 14.358 8.30256 13.321 8.7571C12.2841 9.19744 11.4531 9.82954 10.8281 10.6534C10.2031 11.4773 9.86932 12.4432 9.82671 13.5511H0.984375C1.02699 11.0369 1.74432 8.82102 3.13636 6.90341C4.52841 4.98579 6.40341 3.48721 8.76136 2.40767C11.1335 1.31392 13.8111 0.767044 16.794 0.767044C19.8054 0.767044 22.4403 1.31392 24.6989 2.40767C26.9574 3.50142 28.7116 4.97869 29.9616 6.83949C31.2259 8.68608 31.8509 10.7599 31.8366 13.0611C31.8509 15.5043 31.0909 17.5426 29.5568 19.1761C28.0369 20.8097 26.0554 21.8466 23.6122 22.2869V22.6278C26.8224 23.0398 29.2656 24.1548 30.9418 25.973C32.6321 27.777 33.4702 30.0355 33.456 32.7486C33.4702 35.2344 32.7528 37.4432 31.304 39.375C29.8693 41.3068 27.8878 42.8267 25.3594 43.9347C22.831 45.0426 19.9332 45.5966 16.6662 45.5966Z" fill="#FFB400"/>
</svg>
