<svg width="32" height="45" viewBox="0 0 32 45" fill="none" xmlns="http://www.w3.org/2000/svg">
<path d="M0.536932 45V38.3523L16.0696 23.9702C17.3906 22.6918 18.4986 21.5412 19.3935 20.5185C20.3026 19.4957 20.9915 18.4943 21.4602 17.5142C21.929 16.5199 22.1634 15.4474 22.1634 14.2969C22.1634 13.0185 21.8722 11.9176 21.2898 10.9943C20.7074 10.0568 19.9119 9.33949 18.9034 8.84233C17.8949 8.33097 16.7514 8.07528 15.473 8.07528C14.1378 8.07528 12.973 8.34517 11.9787 8.88494C10.9844 9.42472 10.2173 10.1989 9.67756 11.2074C9.13778 12.2159 8.8679 13.4162 8.8679 14.8082H0.110796C0.110796 11.9531 0.757102 9.47443 2.04972 7.37216C3.34233 5.26989 5.15341 3.64347 7.48296 2.4929C9.8125 1.34233 12.4972 0.767044 15.5369 0.767044C18.6619 0.767044 21.3821 1.32102 23.6974 2.42898C26.027 3.52273 27.8381 5.04261 29.1307 6.98864C30.4233 8.93466 31.0696 11.1648 31.0696 13.679C31.0696 15.3267 30.7429 16.9531 30.0895 18.5582C29.4503 20.1634 28.3068 21.946 26.6591 23.9062C25.0114 25.8523 22.6889 28.1889 19.6918 30.9162L13.321 37.1591V37.4574H31.6449V45H0.536932Z" fill="#FFB400"/>
</svg>
