<svg width="25" height="25" viewBox="0 0 25 25" fill="none" xmlns="http://www.w3.org/2000/svg">
<path d="M12.5 25C19.4036 25 25 19.4036 25 12.5C25 5.59644 19.4036 0 12.5 0C5.59644 0 0 5.59644 0 12.5C0 19.4036 5.59644 25 12.5 25Z" fill="#37BF99"/>
<path opacity="0.2" d="M4.6875 9.76562V19.5312C4.6875 20.3906 5.39062 21.0938 6.25 21.0938H18.75C19.6094 21.0938 20.3125 20.3906 20.3125 19.5312V9.76562H4.6875Z" fill="#231F20"/>
<path d="M4.6875 8.98438V18.75C4.6875 19.6094 5.39062 20.3125 6.25 20.3125H18.75C19.6094 20.3125 20.3125 19.6094 20.3125 18.75V8.98438H4.6875Z" fill="white"/>
<path opacity="0.2" d="M18.75 5.46875H6.25C5.39062 5.46875 4.6875 6.17187 4.6875 7.03125V9.76562H20.3125V7.03125C20.3125 6.17187 19.6094 5.46875 18.75 5.46875Z" fill="#231F20"/>
<path d="M18.75 4.6875H6.25C5.39062 4.6875 4.6875 5.39062 4.6875 6.25V8.98438H20.3125V6.25C20.3125 5.39062 19.6094 4.6875 18.75 4.6875Z" fill="#FF843E"/>
<path d="M12.5 18.75C12.0703 18.75 11.7188 18.3984 11.7188 17.9688C11.7188 15.8203 12.4219 14.2578 13.0859 13.2812H10.5469C10.1172 13.2812 9.76562 12.9297 9.76562 12.5C9.76562 12.0703 10.1172 11.7188 10.5469 11.7188H14.8438C15.1953 11.7188 15.4688 11.9531 15.5859 12.2656C15.7031 12.5781 15.5859 12.9297 15.3125 13.125C15.2344 13.2031 13.2812 14.6484 13.2812 17.9688C13.2812 18.3984 12.9297 18.75 12.5 18.75V18.75Z" fill="#4F5D73"/>
<path opacity="0.2" d="M7.8125 8.20312C7.38281 8.20312 7.03125 7.85156 7.03125 7.42188V4.6875C7.03125 4.25781 7.38281 3.90625 7.8125 3.90625C8.24219 3.90625 8.59375 4.25781 8.59375 4.6875V7.42188C8.59375 7.85156 8.24219 8.20312 7.8125 8.20312Z" fill="#231F20"/>
<path opacity="0.2" d="M17.5781 8.20312C17.1484 8.20312 16.7969 7.85156 16.7969 7.42188V4.6875C16.7969 4.25781 17.1484 3.90625 17.5781 3.90625C18.0078 3.90625 18.3594 4.25781 18.3594 4.6875V7.42188C18.3594 7.85156 18.0078 8.20312 17.5781 8.20312Z" fill="#231F20"/>
<path d="M7.8125 7.42188C7.38281 7.42188 7.03125 7.07031 7.03125 6.64062V3.90625C7.03125 3.47656 7.38281 3.125 7.8125 3.125C8.24219 3.125 8.59375 3.47656 8.59375 3.90625V6.64062C8.59375 7.07031 8.24219 7.42188 7.8125 7.42188Z" fill="#E0E0D1"/>
<path d="M17.5781 7.42188C17.1484 7.42188 16.7969 7.07031 16.7969 6.64062V3.90625C16.7969 3.47656 17.1484 3.125 17.5781 3.125C18.0078 3.125 18.3594 3.47656 18.3594 3.90625V6.64062C18.3594 7.07031 18.0078 7.42188 17.5781 7.42188Z" fill="#E0E0D1"/>
</svg>
