<svg width="120" height="160" viewBox="0 0 120 160" fill="none" xmlns="http://www.w3.org/2000/svg">
<rect width="120" height="160" fill="#D9D9D9"/>
<g opacity="0.4">
<path d="M73.8095 60.8571C77.2284 60.8571 80 63.698 80 67.2024V89.6548C80 93.1591 77.2284 96 73.8095 96H51.9048C48.4859 96 45.7143 93.1591 45.7143 89.6548V77.456C46.6176 77.8421 47.575 78.1216 48.5716 78.2793L48.5714 89.6548C48.5714 90.0616 48.6408 90.4519 48.7681 90.8138L59.8586 79.6839C61.4455 78.0914 63.938 78.0156 65.611 79.4567L65.8556 79.6842L76.9455 90.8158C77.0732 90.4533 77.1429 90.0624 77.1429 89.6548V67.2024C77.1429 65.3154 75.6505 63.7857 73.8095 63.7857L62.7116 63.7859C62.5577 62.7644 62.285 61.7831 61.9083 60.8571H73.8095ZM62.0168 81.6383L61.8575 81.7765L50.797 92.8782C51.1436 93.0034 51.5164 93.0714 51.9048 93.0714H73.8095C74.1971 93.0714 74.5693 93.0036 74.9153 92.8789L63.8565 81.7765C63.3517 81.2698 62.5717 81.2237 62.0168 81.6383V81.6383ZM69.0516 67.6905C71.4208 67.6905 73.3414 69.6591 73.3414 72.0875C73.3414 74.5159 71.4208 76.4844 69.0516 76.4844C66.6825 76.4844 64.7619 74.5159 64.7619 72.0875C64.7619 69.6591 66.6825 67.6905 69.0516 67.6905V67.6905ZM50.4762 55C56.262 55 60.9524 59.8076 60.9524 65.7381C60.9524 71.6686 56.262 76.4762 50.4762 76.4762C44.6904 76.4762 40 71.6686 40 65.7381C40 59.8076 44.6904 55 50.4762 55V55ZM69.0516 70.619C68.2604 70.619 67.619 71.2765 67.619 72.0875C67.619 72.8984 68.2604 73.5559 69.0516 73.5559C69.8429 73.5559 70.4842 72.8984 70.4842 72.0875C70.4842 71.2765 69.8429 70.619 69.0516 70.619ZM50.4762 58.9033L50.305 58.919C49.9163 58.9913 49.6097 59.3055 49.5392 59.704L49.5238 59.8795L49.5231 64.7604L44.7574 64.7619L44.5862 64.7776C44.1975 64.85 43.891 65.1642 43.8204 65.5626L43.805 65.7381L43.8204 65.9136C43.891 66.312 44.1975 66.6262 44.5862 66.6986L44.7574 66.7143L49.525 66.7128L49.5259 71.602L49.5413 71.7775C49.6118 72.176 49.9184 72.4902 50.3071 72.5625L50.4783 72.5782L50.6495 72.5625C51.0382 72.4902 51.3448 72.176 51.4153 71.7775L51.4307 71.602L51.4298 66.7128L56.1992 66.7143L56.3704 66.6986C56.7591 66.6262 57.0656 66.312 57.1362 65.9136L57.1516 65.7381L57.1362 65.5626C57.0656 65.1642 56.7591 64.85 56.3704 64.7776L56.1992 64.7619L51.4279 64.7604L51.4286 59.8795L51.4132 59.704C51.3427 59.3055 51.0361 58.9913 50.6474 58.919L50.4762 58.9033Z" fill="#313131"/>
</g>
</svg>
