<svg width="16" height="17" viewBox="0 0 16 17" fill="none" xmlns="http://www.w3.org/2000/svg">
<path d="M13.6714 5.33077L13.1093 15.811C13.0912 16.1918 12.7648 16.5 12.3841 16.5H3.20934C2.82857 16.5 2.5022 16.1918 2.48407 15.811L1.92198 5.33077C1.90385 4.93187 2.21209 4.58736 2.61099 4.56923C3.00989 4.5511 3.3544 4.85934 3.37253 5.25824L3.89835 15.0495H11.7132L12.239 5.25824C12.2571 4.85934 12.6016 4.5511 13.0006 4.56923C13.3813 4.58736 13.6896 4.93187 13.6714 5.33077V5.33077ZM15.5934 2.9011C15.5934 3.3 15.267 3.62637 14.8681 3.62637H0.725275C0.326374 3.62637 0 3.3 0 2.9011C0 2.5022 0.326374 2.17582 0.725275 2.17582H4.71429V0.543956C4.71429 0.199451 4.95 0 5.29451 0H10.2989C10.6434 0 10.8791 0.199451 10.8791 0.543956V2.17582H14.8681C15.267 2.17582 15.5934 2.5022 15.5934 2.9011ZM5.98352 2.17582H9.60989V1.26923H5.98352V2.17582ZM6.29176 13.9615C6.6544 13.9615 6.92637 13.617 6.92637 13.2725L6.74506 5.43956C6.74506 5.09506 6.45495 4.80495 6.09231 4.80495C5.7478 4.80495 5.45769 5.09506 5.47582 5.45769L5.65714 13.3088C5.65714 13.6533 5.94725 13.9615 6.29176 13.9615ZM9.28352 13.9615C9.62802 13.9615 9.91813 13.6714 9.91813 13.3269L10.0995 5.49396C10.0995 5.14945 9.82747 4.84121 9.48297 4.84121C9.12033 4.84121 8.84835 5.11319 8.83022 5.45769L8.6489 13.2907C8.63077 13.6533 8.92088 13.9615 9.28352 13.9615C9.26539 13.9615 9.26539 13.9615 9.28352 13.9615Z" fill="#A3A3A3"/>
</svg>
