<svg width="16" height="16" viewBox="0 0 16 16" fill="none" xmlns="http://www.w3.org/2000/svg">
<path d="M15.8126 2.74747L13.2526 0.18747C13.1931 0.128035 13.1226 0.0808883 13.0449 0.048722C12.9673 0.0165558 12.884 0 12.8 0C12.7159 0 12.6327 0.0165558 12.555 0.048722C12.4774 0.0808883 12.4068 0.128035 12.3474 0.18747L4.66742 7.86746C4.54741 7.98749 4.47999 8.15027 4.47999 8.32V10.88C4.48 11.0497 4.54742 11.2125 4.66745 11.3325C4.78747 11.4526 4.95026 11.52 5.11999 11.52H7.67999C7.84974 11.52 8.01253 11.4526 8.13257 11.3325L15.8126 3.65254C15.9326 3.53252 16 3.36974 16 3.20001C16 3.03027 15.9326 2.86749 15.8126 2.74747V2.74747ZM7.41491 10.24H5.75999V8.5851L10.88 3.46513L12.5349 5.12003L7.41491 10.24ZM13.44 4.21491L11.7851 2.56001L12.8 1.54511L14.4549 3.20001L13.44 4.21491ZM15.36 7.68V14.72C15.3596 15.0593 15.2246 15.3847 14.9846 15.6247C14.7447 15.8646 14.4193 15.9996 14.08 16H1.28C0.940641 15.9996 0.615294 15.8646 0.375332 15.6247C0.135369 15.3847 0.00038811 15.0593 0 14.72V1.92001C0.000384729 1.58065 0.135365 1.2553 0.375328 1.01534C0.615291 0.775374 0.94064 0.640393 1.28 0.640009H8.31999C8.48973 0.640009 8.65251 0.707437 8.77254 0.82746C8.89256 0.947483 8.95999 1.11027 8.95999 1.28001C8.95999 1.44975 8.89256 1.61253 8.77254 1.73256C8.65251 1.85258 8.48973 1.92001 8.31999 1.92001H1.28V14.72H14.08V7.68C14.08 7.51026 14.1474 7.34747 14.2674 7.22745C14.3875 7.10743 14.5502 7.04 14.72 7.04C14.8897 7.04 15.0525 7.10743 15.1725 7.22745C15.2926 7.34747 15.36 7.51026 15.36 7.68V7.68Z" fill="#A3A3A3"/>
</svg>
