<svg width="16" height="16" viewBox="0 0 16 16" fill="none" xmlns="http://www.w3.org/2000/svg">
<circle cx="8" cy="8" r="8" fill="#37BF99"/>
<path d="M8.21946 12.6293C7.567 12.6293 6.98532 12.5092 6.47443 12.2692C5.96662 12.0291 5.56345 11.6983 5.26491 11.2766C4.96638 10.855 4.81096 10.3718 4.79865 9.82706H6.73757C6.75911 10.1933 6.913 10.4903 7.19922 10.718C7.48544 10.9458 7.82552 11.0597 8.21946 11.0597C8.53338 11.0597 8.81037 10.9904 9.05043 10.8519C9.29356 10.7103 9.48284 10.5149 9.61825 10.2656C9.75675 10.0133 9.82599 9.72396 9.82599 9.39773C9.82599 9.06534 9.75521 8.77296 9.61364 8.5206C9.47514 8.26823 9.28279 8.07126 9.03658 7.92969C8.79036 7.78812 8.50876 7.71579 8.19176 7.71271C7.91477 7.71271 7.64548 7.76965 7.38388 7.88352C7.12536 7.9974 6.92377 8.15282 6.77912 8.34979L5.00178 8.03125L5.44957 3.04545H11.2294V4.67969H7.09766L6.85298 7.04794H6.90838C7.07457 6.81404 7.3254 6.62015 7.66087 6.46626C7.99633 6.31238 8.3718 6.23544 8.78729 6.23544C9.35665 6.23544 9.86447 6.36932 10.3107 6.63707C10.757 6.90483 11.1094 7.27261 11.3679 7.74041C11.6264 8.20514 11.7541 8.74065 11.7511 9.34695C11.7541 9.98402 11.6064 10.5503 11.3079 11.0458C11.0124 11.5382 10.5985 11.926 10.0661 12.2092C9.5367 12.4892 8.92116 12.6293 8.21946 12.6293Z" fill="white"/>
</svg>
