<svg width="179" height="28" viewBox="0 0 179 28" fill="none" xmlns="http://www.w3.org/2000/svg">
<circle cx="14" cy="14" r="14" fill="#FAE100"/>
<path d="M49.02 7.536V7.824C49.02 12.504 47.832 15.69 42.648 18.3L43.926 20.118C50.136 16.968 51.36 12.684 51.36 7.536H49.02ZM43.674 7.536V9.426H50.442V7.536H43.674ZM49.074 11.622L42.81 11.982L43.098 14.034L49.074 13.458V11.622ZM53.376 5.916V22.584H55.788V5.916H53.376ZM55.158 12.288V14.25H58.092V12.288H55.158ZM65.5786 7.536V7.824C65.5786 12.504 64.3906 15.69 59.2066 18.3L60.4846 20.118C66.6946 16.968 67.9186 12.684 67.9186 7.536H65.5786ZM60.2326 7.536V9.426H67.0006V7.536H60.2326ZM65.6326 11.622L59.3686 11.982L59.6566 14.034L65.6326 13.458V11.622ZM69.9346 5.916V22.584H72.3466V5.916H69.9346ZM71.7166 12.288V14.25H74.6506V12.288H71.7166ZM82.1732 15.312V19.11H84.5672V15.312H82.1732ZM83.3792 6.78C79.8152 6.78 77.1512 8.598 77.1512 11.37C77.1512 14.178 79.8152 15.978 83.3792 15.978C86.9432 15.978 89.6072 14.178 89.6072 11.37C89.6072 8.598 86.9432 6.78 83.3792 6.78ZM83.3792 8.67C85.6652 8.67 87.2492 9.678 87.2492 11.37C87.2492 13.098 85.6652 14.088 83.3792 14.088C81.0932 14.088 79.5092 13.098 79.5092 11.37C79.5092 9.678 81.0932 8.67 83.3792 8.67ZM75.8552 18.732V20.676H90.9392V18.732H75.8552ZM92.4138 18.822V20.766H107.498V18.822H92.4138ZM98.7318 15.672V19.614H101.126V15.672H98.7318ZM94.1058 7.014V8.904H103.43V10.686H94.1418V15.366H96.5178V12.558H105.806V7.014H94.1058ZM94.1418 14.412V16.338H106.184V14.412H94.1418ZM117.487 7.212V9.642C117.487 12.882 116.119 16.086 113.221 17.346L114.643 19.326C117.955 17.796 119.431 13.926 119.431 9.642V7.212H117.487ZM117.955 7.212V9.642C117.955 13.746 119.431 17.454 122.653 18.93L124.057 17.004C121.213 15.78 119.899 12.72 119.899 9.642V7.212H117.955ZM124.849 5.916V22.638H127.261V5.916H124.849ZM133.686 7.644V8.688C133.686 10.776 132.516 12.936 129.726 13.836L130.968 15.69C134.154 14.664 135.648 11.838 135.648 8.688V7.644H133.686ZM134.172 7.644V8.688C134.172 11.676 135.612 14.394 138.726 15.402L139.95 13.548C137.25 12.684 136.116 10.65 136.116 8.688V7.644H134.172ZM130.374 6.906V8.814H139.374V6.906H130.374ZM140.706 5.934V15.978H143.1V5.934H140.706ZM142.434 9.966V11.928H145.314V9.966H142.434ZM131.976 16.698V18.624H140.706V22.602H143.1V16.698H131.976ZM157.228 5.934V22.602H159.604V5.934H157.228ZM159.064 12.432V14.43H162.016V12.432H159.064ZM146.464 8.4V10.308H156.166V8.4H146.464ZM151.342 11.244C148.912 11.244 147.112 12.9 147.112 15.222C147.112 17.544 148.912 19.2 151.342 19.2C153.772 19.2 155.572 17.544 155.572 15.222C155.572 12.9 153.772 11.244 151.342 11.244ZM151.342 13.188C152.476 13.188 153.286 13.944 153.286 15.222C153.286 16.5 152.476 17.256 151.342 17.256C150.208 17.256 149.398 16.5 149.398 15.222C149.398 13.944 150.208 13.188 151.342 13.188ZM150.136 6.204V9.12H152.53V6.204H150.136ZM174.579 5.934V22.602H176.991V5.934H174.579ZM169.665 7.662V8.094C169.665 12.558 167.937 15.582 163.149 17.886L164.391 19.794C170.313 16.932 172.041 12.756 172.041 7.662H169.665ZM164.031 7.662V9.552H170.799V7.662H164.031Z" fill="#443731"/>
<path d="M14 8C15.2656 8 16.4362 8.22857 17.5117 8.6857C18.5872 9.14284 19.4375 9.76446 20.0625 10.5505C20.6875 11.3366 21 12.194 21 13.1228C21 14.0516 20.6875 14.9102 20.0625 15.6988C19.4375 16.4872 18.5885 17.1101 17.5156 17.5672C16.4427 18.0243 15.2708 18.2529 14 18.2529C13.599 18.2529 13.1849 18.2263 12.7578 18.1731C10.9036 19.3679 9.91668 19.9726 9.79688 19.9871C9.73958 20.0065 9.68488 20.004 9.63281 19.9799C9.61197 19.9653 9.59635 19.946 9.58593 19.9218C9.57551 19.8976 9.57031 19.8759 9.57031 19.8565V19.8275C9.60158 19.6388 9.83854 18.8527 10.2813 17.4692C9.27604 17.0049 8.47786 16.3893 7.88672 15.6225C7.29557 14.8558 7 14.0226 7 13.1228C7 12.194 7.3125 11.3366 7.9375 10.5505C8.5625 9.76446 9.41276 9.14284 10.4883 8.6857C11.5638 8.22857 12.7344 8 14 8Z" fill="#443731"/>
</svg>
