<svg width="196" height="28" viewBox="0 0 196 28" fill="none" xmlns="http://www.w3.org/2000/svg">
<circle cx="14" cy="14" r="14" fill="#FAE100"/>
<path d="M49.02 7.536V7.824C49.02 12.504 47.832 15.69 42.648 18.3L43.926 20.118C50.136 16.968 51.36 12.684 51.36 7.536H49.02ZM43.674 7.536V9.426H50.442V7.536H43.674ZM49.074 11.622L42.81 11.982L43.098 14.034L49.074 13.458V11.622ZM53.376 5.916V22.584H55.788V5.916H53.376ZM55.158 12.288V14.25H58.092V12.288H55.158ZM65.5786 7.536V7.824C65.5786 12.504 64.3906 15.69 59.2066 18.3L60.4846 20.118C66.6946 16.968 67.9186 12.684 67.9186 7.536H65.5786ZM60.2326 7.536V9.426H67.0006V7.536H60.2326ZM65.6326 11.622L59.3686 11.982L59.6566 14.034L65.6326 13.458V11.622ZM69.9346 5.916V22.584H72.3466V5.916H69.9346ZM71.7166 12.288V14.25H74.6506V12.288H71.7166ZM82.1732 15.312V19.11H84.5672V15.312H82.1732ZM83.3792 6.78C79.8152 6.78 77.1512 8.598 77.1512 11.37C77.1512 14.178 79.8152 15.978 83.3792 15.978C86.9432 15.978 89.6072 14.178 89.6072 11.37C89.6072 8.598 86.9432 6.78 83.3792 6.78ZM83.3792 8.67C85.6652 8.67 87.2492 9.678 87.2492 11.37C87.2492 13.098 85.6652 14.088 83.3792 14.088C81.0932 14.088 79.5092 13.098 79.5092 11.37C79.5092 9.678 81.0932 8.67 83.3792 8.67ZM75.8552 18.732V20.676H90.9392V18.732H75.8552ZM92.4138 18.822V20.766H107.498V18.822H92.4138ZM98.7318 15.672V19.614H101.126V15.672H98.7318ZM94.1058 7.014V8.904H103.43V10.686H94.1418V15.366H96.5178V12.558H105.806V7.014H94.1058ZM94.1418 14.412V16.338H106.184V14.412H94.1418ZM113.437 18.822V20.766H128.521V18.822H113.437ZM119.755 15.672V19.614H122.149V15.672H119.755ZM115.129 7.014V8.904H124.453V10.686H115.165V15.366H117.541V12.558H126.829V7.014H115.129ZM115.165 14.412V16.338H127.207V14.412H115.165ZM131.526 7.464V9.354H142.092V7.464H131.526ZM129.996 18.48V20.424H145.062V18.48H129.996ZM140.832 7.464V9.444C140.832 11.694 140.832 14.07 140.22 17.274L142.614 17.472C143.208 14.052 143.208 11.784 143.208 9.444V7.464H140.832ZM157.984 5.952V17.922H160.396V5.952H157.984ZM149.29 20.406V22.314H160.81V20.406H149.29ZM149.29 16.716V21.18H151.684V16.716H149.29ZM151.324 6.996C148.768 6.996 146.788 8.76 146.788 11.226C146.788 13.674 148.768 15.456 151.324 15.456C153.88 15.456 155.842 13.674 155.842 11.226C155.842 8.76 153.88 6.996 151.324 6.996ZM151.324 9.066C152.548 9.066 153.502 9.858 153.502 11.226C153.502 12.576 152.548 13.368 151.324 13.368C150.082 13.368 149.128 12.576 149.128 11.226C149.128 9.858 150.082 9.066 151.324 9.066ZM173.787 5.934V22.602H176.163V5.934H173.787ZM175.623 12.432V14.43H178.575V12.432H175.623ZM163.023 8.4V10.308H172.725V8.4H163.023ZM167.901 11.244C165.471 11.244 163.671 12.9 163.671 15.222C163.671 17.544 165.471 19.2 167.901 19.2C170.331 19.2 172.131 17.544 172.131 15.222C172.131 12.9 170.331 11.244 167.901 11.244ZM167.901 13.188C169.035 13.188 169.845 13.944 169.845 15.222C169.845 16.5 169.035 17.256 167.901 17.256C166.767 17.256 165.957 16.5 165.957 15.222C165.957 13.944 166.767 13.188 167.901 13.188ZM166.695 6.204V9.12H169.089V6.204H166.695ZM191.138 5.934V22.602H193.55V5.934H191.138ZM186.224 7.662V8.094C186.224 12.558 184.496 15.582 179.708 17.886L180.95 19.794C186.872 16.932 188.6 12.756 188.6 7.662H186.224ZM180.59 7.662V9.552H187.358V7.662H180.59Z" fill="#443731"/>
<path d="M14 8C15.2656 8 16.4362 8.22857 17.5117 8.6857C18.5872 9.14284 19.4375 9.76446 20.0625 10.5505C20.6875 11.3366 21 12.194 21 13.1228C21 14.0516 20.6875 14.9102 20.0625 15.6988C19.4375 16.4872 18.5885 17.1101 17.5156 17.5672C16.4427 18.0243 15.2708 18.2529 14 18.2529C13.599 18.2529 13.1849 18.2263 12.7578 18.1731C10.9036 19.3679 9.91668 19.9726 9.79688 19.9871C9.73958 20.0065 9.68488 20.004 9.63281 19.9799C9.61197 19.9653 9.59635 19.946 9.58593 19.9218C9.57551 19.8976 9.57031 19.8759 9.57031 19.8565V19.8275C9.60158 19.6388 9.83854 18.8527 10.2813 17.4692C9.27604 17.0049 8.47786 16.3893 7.88672 15.6225C7.29557 14.8558 7 14.0226 7 13.1228C7 12.194 7.3125 11.3366 7.9375 10.5505C8.5625 9.76446 9.41276 9.14284 10.4883 8.6857C11.5638 8.22857 12.7344 8 14 8Z" fill="#443731"/>
</svg>
