<svg width="20" height="24" viewBox="0 0 20 24" fill="none" xmlns="http://www.w3.org/2000/svg">
<path d="M16.5432 2.54883H17.8739V4.14283H16.5432V2.54883Z" fill="#66757F"/>
<path d="M17.3333 2.54883H3.99992C2.52725 2.54883 1.33325 3.74283 1.33325 5.21549V21.2155C1.33325 22.6882 2.52725 23.8822 3.99992 23.8822H17.3333C18.8059 23.8822 19.9999 22.6882 19.9999 21.2155V5.21549C19.9999 3.74283 18.8059 2.54883 17.3333 2.54883Z" fill="#37BF99"/>
<path d="M16 2.54883H2.66667C1.194 2.54883 0 3.74283 0 5.21549V21.2155C0 22.6882 1.194 23.8822 2.66667 23.8822H16C17.4727 23.8822 18.6667 22.6882 18.6667 21.2155V5.21549C18.6667 3.74283 17.4727 2.54883 16 2.54883Z" fill="white"/>
<path d="M16.6667 9.88151C16.6667 10.2502 16.3687 10.5482 16 10.5482H2.66667C2.29867 10.5482 2 10.2502 2 9.88151C2 9.51351 2.29867 9.21484 2.66667 9.21484H16C16.3687 9.21484 16.6667 9.51351 16.6667 9.88151ZM16.6667 13.2148C16.6667 13.5835 16.3687 13.8815 16 13.8815H2.66667C2.29867 13.8815 2 13.5835 2 13.2148C2 12.8462 2.29867 12.5482 2.66667 12.5482H16C16.3687 12.5482 16.6667 12.8462 16.6667 13.2148ZM16.6667 16.5482C16.6667 16.9168 16.3687 17.2148 16 17.2148H2.66667C2.29867 17.2148 2 16.9168 2 16.5482C2 16.1795 2.29867 15.8815 2.66667 15.8815H16C16.3687 15.8815 16.6667 16.1795 16.6667 16.5482ZM11.3333 19.8815C11.3333 20.2502 11.0353 20.5482 10.6667 20.5482H2.66667C2.29867 20.5482 2 20.2502 2 19.8815C2 19.5128 2.29867 19.2148 2.66667 19.2148H10.6667C11.0353 19.2148 11.3333 19.5128 11.3333 19.8815Z" fill="#99AAB5"/>
<path d="M3.22404 5.70213C2.75604 5.70213 2.37671 5.25813 2.37671 4.70946C2.37671 4.16146 2.75604 3.7168 3.22404 3.7168C3.69138 3.7168 4.07071 4.16146 4.07071 4.70946C4.07071 5.25746 3.69138 5.70213 3.22404 5.70213Z" fill="#292F33"/>
<path d="M3.69523 4.60333C3.65856 4.28333 3.4459 4.07533 3.20923 3.92533C2.8859 3.72067 2.54256 3.25333 2.54256 2.674C2.54256 1.938 2.9899 1.27733 3.54256 1.27733C4.09523 1.27733 4.54256 1.88067 4.54256 2.54733H5.87323C5.85923 1.214 4.82323 0 3.54256 0C2.25323 0 1.20923 1.21267 1.20923 2.67C1.20923 3.90533 1.9059 4.91733 2.9219 5.28733C3.42856 5.47133 3.7379 4.98933 3.69523 4.60333Z" fill="#66757F"/>
<path d="M7.22404 5.70213C6.75604 5.70213 6.37671 5.25813 6.37671 4.70946C6.37671 4.16146 6.75604 3.7168 7.22404 3.7168C7.69138 3.7168 8.07071 4.16146 8.07071 4.70946C8.07071 5.25746 7.69138 5.70213 7.22404 5.70213V5.70213Z" fill="#292F33"/>
<path d="M7.69523 4.60333C7.65856 4.28333 7.4459 4.07533 7.20923 3.92533C6.8859 3.72067 6.54256 3.25333 6.54256 2.674C6.54256 1.938 6.9899 1.27733 7.54256 1.27733C8.09523 1.27733 8.54256 1.88067 8.54256 2.54733H9.87323C9.85989 1.214 8.82323 0 7.54256 0C6.25323 0 5.20923 1.21267 5.20923 2.67C5.20923 3.90533 5.9059 4.91733 6.9219 5.28733C7.42856 5.47133 7.7379 4.98933 7.69523 4.60333Z" fill="#66757F"/>
<path d="M11.224 5.70213C10.756 5.70213 10.3767 5.25813 10.3767 4.70946C10.3767 4.16146 10.756 3.7168 11.224 3.7168C11.6914 3.7168 12.0714 4.16146 12.0714 4.70946C12.0707 5.25746 11.6914 5.70213 11.224 5.70213Z" fill="#292F33"/>
<path d="M11.6953 4.60333C11.6586 4.28333 11.446 4.07533 11.21 3.92533C10.8866 3.72067 10.5433 3.25333 10.5433 2.674C10.5433 1.938 10.9906 1.27733 11.5433 1.27733C12.096 1.27733 12.5433 1.88067 12.5433 2.54733H13.874C13.8606 1.214 12.824 0 11.5433 0C10.254 0 9.20996 1.21267 9.20996 2.67C9.20996 3.90533 9.90663 4.91733 10.9226 5.28733C11.4286 5.47133 11.738 4.98933 11.6953 4.60333V4.60333Z" fill="#66757F"/>
<path d="M15.224 5.70213C14.756 5.70213 14.3767 5.25813 14.3767 4.70946C14.3767 4.16146 14.756 3.7168 15.224 3.7168C15.6914 3.7168 16.0714 4.16146 16.0714 4.70946C16.0707 5.25746 15.6914 5.70213 15.224 5.70213Z" fill="#292F33"/>
<path d="M15.6953 4.60333C15.6586 4.28333 15.446 4.07533 15.21 3.92533C14.8866 3.72067 14.5433 3.25333 14.5433 2.674C14.5433 1.938 14.9906 1.27733 15.5433 1.27733C16.096 1.27733 16.5433 1.88067 16.5433 2.54733H17.874C17.8606 1.214 16.824 0 15.5433 0C14.254 0 13.21 1.21267 13.21 2.67C13.21 3.90533 13.9066 4.91733 14.9226 5.28733C15.4286 5.47133 15.738 4.98933 15.6953 4.60333V4.60333Z" fill="#66757F"/>
</svg>
