<svg width="22" height="22" viewBox="0 0 22 22" fill="none" xmlns="http://www.w3.org/2000/svg">
<path d="M11.5238 10.4762H15.1905C15.4798 10.4762 15.7143 10.7107 15.7143 11C15.7143 11.2893 15.4798 11.5238 15.1905 11.5238H11.5238V15.1905C11.5238 15.4798 11.2893 15.7143 11 15.7143C10.7107 15.7143 10.4762 15.4798 10.4762 15.1905V11.5238H6.80952C6.52023 11.5238 6.28571 11.2893 6.28571 11C6.28571 10.7107 6.52023 10.4762 6.80952 10.4762H10.4762V6.80952C10.4762 6.52023 10.7107 6.28571 11 6.28571C11.2893 6.28571 11.5238 6.52023 11.5238 6.80952V10.4762ZM11 22C4.92487 22 0 17.0751 0 11C0 4.92487 4.92487 0 11 0C17.0751 0 22 4.92487 22 11C22 17.0751 17.0751 22 11 22ZM11 20.9524C16.4965 20.9524 20.9524 16.4965 20.9524 11C20.9524 5.50345 16.4965 1.04762 11 1.04762C5.50345 1.04762 1.04762 5.50345 1.04762 11C1.04762 16.4965 5.50345 20.9524 11 20.9524Z" fill="#37BF99"/>
</svg>
