<svg width="16" height="16" viewBox="0 0 16 16" fill="none" xmlns="http://www.w3.org/2000/svg">
<circle cx="8" cy="8" r="8" fill="#BCF1E3"/>
<path d="M8.26101 12.6293C7.57161 12.6293 6.95762 12.5108 6.41903 12.2738C5.88352 12.0337 5.46035 11.7044 5.1495 11.2859C4.84174 10.8642 4.68324 10.378 4.67401 9.82706H6.68679C6.6991 10.0579 6.7745 10.261 6.913 10.4364C7.05457 10.6088 7.24231 10.7427 7.47621 10.8381C7.71011 10.9335 7.97325 10.9812 8.26562 10.9812C8.57031 10.9812 8.83961 10.9273 9.07351 10.8196C9.30741 10.7119 9.49053 10.5626 9.62287 10.3718C9.75521 10.181 9.82138 9.96094 9.82138 9.71165C9.82138 9.45928 9.75059 9.23615 9.60902 9.04226C9.47053 8.84529 9.27048 8.69141 9.00888 8.58061C8.75036 8.46982 8.44259 8.41442 8.08558 8.41442H7.20384V6.94638H8.08558C8.38719 6.94638 8.65341 6.89406 8.88423 6.78942C9.11813 6.68478 9.29972 6.54013 9.42898 6.35547C9.55824 6.16773 9.62287 5.94922 9.62287 5.69993C9.62287 5.46295 9.56593 5.25521 9.45206 5.0767C9.34126 4.89512 9.1843 4.75355 8.98118 4.65199C8.78113 4.55043 8.54723 4.49964 8.27947 4.49964C8.00864 4.49964 7.76089 4.54889 7.53622 4.64737C7.31155 4.74278 7.13151 4.87973 6.99609 5.05824C6.86068 5.23674 6.78835 5.44602 6.77912 5.68608H4.86328C4.87251 5.14133 5.02794 4.66122 5.32955 4.24574C5.63116 3.83026 6.03741 3.50556 6.5483 3.27166C7.06226 3.03468 7.6424 2.91619 8.28871 2.91619C8.94117 2.91619 9.51207 3.03468 10.0014 3.27166C10.4908 3.50864 10.8709 3.82872 11.1417 4.23189C11.4156 4.63198 11.551 5.08132 11.5479 5.5799C11.551 6.10926 11.3864 6.5509 11.054 6.90483C10.7247 7.25876 10.2953 7.48343 9.76598 7.57883V7.6527C10.4615 7.74195 10.9909 7.98355 11.354 8.37749C11.7203 8.76835 11.9019 9.25769 11.8988 9.84553C11.9019 10.3841 11.7464 10.8627 11.4325 11.2812C11.1217 11.6998 10.6924 12.0291 10.1445 12.2692C9.59671 12.5092 8.96887 12.6293 8.26101 12.6293Z" fill="white"/>
</svg>
