<svg width="16" height="16" viewBox="0 0 16 16" fill="none" xmlns="http://www.w3.org/2000/svg">
<circle cx="8" cy="8" r="8" fill="#BCF1E3"/>
<path d="M4.76634 12.5V11.0597L8.13175 7.94354C8.41797 7.66655 8.65803 7.41726 8.85192 7.19567C9.04889 6.97408 9.19815 6.7571 9.29972 6.54474C9.40128 6.32931 9.45206 6.09695 9.45206 5.84766C9.45206 5.57067 9.38897 5.33215 9.26278 5.1321C9.1366 4.92898 8.96425 4.77356 8.74574 4.66584C8.52723 4.55504 8.27947 4.49964 8.00249 4.49964C7.71319 4.49964 7.46082 4.55812 7.24538 4.67507C7.02995 4.79202 6.86375 4.95975 6.7468 5.17827C6.62985 5.39678 6.57138 5.65684 6.57138 5.95845H4.67401C4.67401 5.33984 4.81404 4.80279 5.09411 4.3473C5.37417 3.89181 5.76657 3.53942 6.27131 3.29013C6.77604 3.04084 7.35772 2.91619 8.01634 2.91619C8.69342 2.91619 9.28279 3.03622 9.78445 3.27628C10.2892 3.51326 10.6816 3.84257 10.9616 4.2642C11.2417 4.68584 11.3817 5.16903 11.3817 5.71378C11.3817 6.07079 11.311 6.42318 11.1694 6.77095C11.0309 7.11873 10.7831 7.50497 10.4261 7.92969C10.0691 8.35133 9.56593 8.8576 8.91655 9.44851L7.53622 10.8011V10.8658H11.5064V12.5H4.76634Z" fill="white"/>
</svg>
